<svg width="120" height="110" viewBox="0 0 120 110" fill="none" xmlns="http://www.w3.org/2000/svg">
<path d="M75.549 55.0632C74.4954 54.0854 74.1627 53.4339 74.3337 51.5617C71.6582 53.9229 68.2587 52.5798 64.3633 50.0964C68.2587 55.4702 72.5823 55.416 75.549 55.0632Z" fill="white"/>
<path d="M114.553 45.979C110.127 20.085 87.6726 0.381836 60.6341 0.381836C30.4179 0.381836 5.92093 24.9838 5.92093 55.3432C5.91312 62.1319 7.16144 68.863 9.60227 75.1934C9.60227 71.4691 9.97348 67.7494 10.93 64.3732C11.3613 74.361 12.2269 81.0917 17.9137 89.6807C26.5037 100.476 38.8304 107.621 52.4335 109.689C49.7611 108.847 47.2858 107.029 45.9642 103.594C54.4082 109.132 65.6956 110.068 80.6396 106.514C74.9158 105.276 71.5657 99.848 72.0293 95.4506C73.0783 98.7633 77.2925 101.151 80.752 101.586C78.993 99.3064 77.941 95.3964 78.8852 91.8686C80.692 94.7992 83.2366 98.0578 92.0132 100.369C85.8751 92.9099 84.21 82.6127 86.8039 73.3026C89.3978 81.7447 93.9371 88.2588 102.515 90.6973C98.4563 85.2926 96.685 80.9493 95.2263 74.9319C98.9554 80.1416 103.818 82.0974 107.831 83.145C105.844 81.4259 103.98 79.3278 103.333 75.5833C106.25 76.8862 103.333 75.5833 110.24 78.5387C100.935 69.7686 99.3343 56.4124 100.739 49.1741C103.656 53.3812 105.386 56.9632 105.602 66.1371C107.547 57.0174 105.927 48.549 102.367 41.2737C108.203 45.7237 113.283 56.8549 113.553 69.3493C115.66 50.74 110.582 41.9808 103.016 30.6268C107.663 33.5125 111.529 39.2421 114.553 45.979ZM96.2414 29.8469C90.0801 21.3786 84.6768 15.0811 75.8138 13.5617C80.5703 16.6021 82.5835 18.9896 85.2513 22.898C79.7062 18.7729 69.3292 9.6532 52.2533 11.6028C71.9816 2.92248 90.7456 14.2131 96.2414 29.8469ZM60.2367 16.3081C52.0731 19.1752 43.7555 25.1896 41.2371 29.3657C44.8753 27.0974 50.0723 23.8357 58.3344 24.3045C45.4606 26.9349 36.0616 36.392 31.4515 46.5855C31.413 40.6919 33.6172 35.4234 35.2884 33.7028C33.4108 33.3361 32.5159 33.203 31.0926 33.2989C36.4975 25.1416 48.1053 16.5077 60.2367 16.3081ZM38.5908 59.0134C34.1902 52.2208 37.4048 42.6879 43.7585 40.8451C39.9786 44.5477 37.2738 51.1547 38.5923 59.0196L38.5908 59.0134ZM16.7462 64.2587C16.1301 59.1372 16.3149 52.6416 17.2761 49.25C16.5289 49.5116 15.7532 49.6825 14.9656 49.759C14.9656 41.9978 19.9393 25.6042 33.6665 17.8956C22.6409 26.251 19.1876 38.7841 19.4494 46.4509C21.3471 46.1322 22.6102 45.2425 23.8178 44.8789C20.8604 48.792 17.5579 55.8507 16.7477 64.2649L16.7462 64.2587ZM28.1984 72.7982C22.7426 65.4269 24.7234 59.5054 29.3135 55.1204C27.2465 58.9886 25.6214 68.1393 28.1984 72.7982ZM24.517 76.3802C25.757 82.8355 32.4773 95.0065 39.8508 97.9758C26.5749 94.5918 23.3064 85.8264 24.514 76.3879L24.517 76.3802ZM51.6079 93.0909C51.8775 96.1855 52.2549 100.007 55.8222 102.862C50.7608 101.454 49.7134 97.9757 51.611 93.0894L51.6079 93.0909ZM60.2336 84.9491C60.437 90.3228 64.3601 101.005 69.953 104.329C59.6437 99.93 58.0895 92.438 60.2367 84.9475L60.2336 84.9491ZM82.0074 37.0867C81.3343 39.7016 80.481 41.7518 79.7108 43.7122L79.3257 43.5343C76.9752 42.4759 71.6242 40.5217 66.8493 44.9268C71.1621 42.1046 76.3991 43.5869 78.9822 45.685C78.765 46.3039 78.5648 46.9352 78.3923 47.5866C77.0954 52.473 80.8137 60.5096 81.878 63.9539C82.6066 66.3151 80.1837 66.804 78.3122 66.804C77.5005 68.6762 77.7469 70.0069 77.9887 70.6583C78.2306 71.3097 78.0134 72.9932 75.5828 72.9932C76.0141 74.4043 76.9875 75.8154 74.9343 76.521C72.8811 77.2266 73.0428 78.1503 73.0967 79.8864C73.1506 81.6224 72.1371 84.3735 68.1785 84.064C64.5943 83.7933 61.8956 82.5167 58.5301 80.7188C56.7233 79.7548 50.6021 83.6292 45.9689 94.0255C38.4029 88.3794 34.9295 77.0053 36.4436 65.0571C38.389 70.0518 40.9829 74.1768 47.4676 77.4354C39.9016 68.5323 40.4022 60.932 44.293 52.5364C44.293 56.5191 46.7575 67.8391 62.4363 72.6125C49.4669 65.2335 48.6167 48.99 53.9523 39.3782C54.0601 43.8313 54.4144 54.2818 62.424 61.7737C56.7679 45.261 59.9995 24.5428 82.2538 30.096C82.528 30.1595 82.8084 30.2291 83.0995 30.3142C88.5799 31.9156 94.6333 36.4771 96.3615 45.7051C92.8542 38.897 90.7409 37.0186 86.9656 35.2826C88.911 37.6716 90.2003 40.6022 90.3158 43.6379C88.1671 39.9693 84.9155 38.0244 82.0074 37.0867ZM93.5397 62.535C91.8099 64.4892 91.9177 64.7012 90.7286 65.7921C89.3238 60.3642 88.4181 56.8379 89.0004 46.7913C89.7921 52.654 90.4051 58.4084 92.0255 61.0156C93.2147 59.4946 94.5116 57.1071 95.1601 56.0209C95.5929 60.9057 97.5383 68.1811 99.8072 71.7631C95.9164 68.39 94.5116 64.5898 93.5397 62.5273V62.535Z" fill="white"/>
</svg>
