<svg width="120" height="112" viewBox="0 0 120 112" fill="none" xmlns="http://www.w3.org/2000/svg">
<path fill-rule="evenodd" clip-rule="evenodd" d="M56.4873 75.5996C61.6801 81.3517 66.2083 85.2532 70.072 87.3044C72.234 88.4518 74.1748 89.014 75.8944 88.9911C77.5394 88.9803 79.1216 88.3577 80.3327 87.2445C81.2315 86.4456 82.0384 85.3776 82.7534 84.0404C83.2757 82.0612 83.4719 80.3366 83.3421 78.8666C83.1573 76.7575 82.287 75.1797 80.7312 74.1332C79.1164 73.0457 76.7567 72.4964 73.652 72.4855C69.329 72.4735 63.6074 73.51 56.4873 75.5951" fill="white"/>
<path d="M56.4873 75.5996C61.6801 81.3517 66.2083 85.2532 70.072 87.3044C72.234 88.4518 74.1748 89.014 75.8944 88.9911C77.5394 88.9803 79.1216 88.3577 80.3327 87.2445C81.2315 86.4456 82.0384 85.3776 82.7534 84.0404C83.2757 82.0612 83.4719 80.3366 83.3421 78.8666C83.1573 76.7575 82.287 75.1797 80.7312 74.1332C79.1164 73.0457 76.7567 72.4964 73.652 72.4855C69.329 72.4735 63.6074 73.51 56.4873 75.5951" stroke="white"/>
<path d="M61.1431 66.7917C64.9843 64.6082 69.0006 62.7484 73.1505 61.2315C75.1009 60.3212 76.9594 59.2257 78.7003 57.96C83.8062 54.1972 86.6832 49.3674 87.3313 43.4706C87.9854 37.5109 86.3796 30.4442 82.514 22.2705C79.7179 16.3457 75.7314 9.84923 70.5546 2.78103C59.0635 13.4373 51.7117 24.6866 48.4992 36.5292C45.3106 48.2899 46.2029 60.6513 51.176 73.6133C54.3053 71.0695 57.639 68.7879 61.1431 66.7917M73.5759 62.3459C69.4802 63.8417 65.5164 65.6765 61.7258 67.8313C58.0421 69.9288 54.5505 72.3468 51.2913 75.0573L50.6562 75.586L50.3566 74.8191C45.024 61.3298 44.0189 48.4622 47.3413 36.2162C50.6577 23.9891 58.2896 12.4002 70.237 1.44938L70.7268 1L71.1208 1.53475C76.5303 8.87457 80.6875 15.6152 83.5925 21.7567C87.554 30.1331 89.1957 37.4125 88.5177 43.5949C87.8316 49.8413 84.7938 54.9502 79.4043 58.9217C77.5933 60.2381 75.6595 61.3768 73.6298 62.3219L73.5759 62.3459Z" fill="white"/>
<path d="M61.1431 66.7917C64.9843 64.6082 69.0006 62.7484 73.1505 61.2315C75.1009 60.3212 76.9594 59.2257 78.7003 57.96C83.8062 54.1972 86.6832 49.3674 87.3313 43.4706C87.9854 37.5109 86.3796 30.4442 82.514 22.2705C79.7179 16.3457 75.7314 9.84923 70.5546 2.78103C59.0635 13.4373 51.7117 24.6866 48.4992 36.5292C45.3106 48.2899 46.2029 60.6513 51.176 73.6133C54.3053 71.0695 57.639 68.7879 61.1431 66.7917M73.5759 62.3459C69.4802 63.8417 65.5164 65.6765 61.7258 67.8313C58.0421 69.9288 54.5505 72.3468 51.2913 75.0573L50.6562 75.586L50.3566 74.8191C45.024 61.3298 44.0189 48.4622 47.3413 36.2162C50.6577 23.9891 58.2896 12.4002 70.237 1.44938L70.7268 1L71.1208 1.53475C76.5303 8.87457 80.6875 15.6152 83.5925 21.7567C87.554 30.1331 89.1957 37.4125 88.5177 43.5949C87.8316 49.8413 84.7938 54.9502 79.4043 58.9217C77.5933 60.2381 75.6595 61.3768 73.6298 62.3219L73.5759 62.3459Z" stroke="white"/>
<path d="M69.906 71.1798C65.584 71.1678 59.8629 72.2043 52.7428 74.2894C57.9356 80.0415 62.4638 83.943 66.3274 85.9942C68.4894 87.1406 70.4302 87.7028 72.1499 87.6809C73.7947 87.6694 75.3766 87.0469 76.5882 85.9343C77.4869 85.1354 78.2938 84.0674 79.0088 82.7302C79.5311 80.751 79.7273 79.0264 79.5975 77.5564C79.4118 75.4474 78.5415 73.8695 76.9867 72.823C75.3719 71.7355 73.0117 71.1862 69.906 71.1753M53.0109 41.8834C50.4734 48.1597 49.9352 58.6646 51.3961 73.3982C61.8526 62.4674 68.2628 53.8258 70.6265 47.4736C71.4384 45.2887 71.7644 43.3913 71.6046 41.7815C71.4876 40.3046 70.83 38.9227 69.7577 37.9004C68.9538 37.1295 67.8883 36.4964 66.5611 36.0011C60.0262 33.7512 55.5094 35.7134 53.0109 41.8879V41.8834ZM94.3356 93.3146C84.7548 95.87 76.2966 95.6099 68.9608 92.5342C61.6479 89.4674 55.4755 83.613 50.4435 74.971L49.663 75.2047L50.3101 74.5321C48.7034 59.0705 49.2342 48.0393 51.9025 41.4385C54.6836 34.559 59.6991 32.3681 66.9491 34.8656L66.9625 34.8731C68.4525 35.4273 69.6603 36.1483 70.586 37.0361C71.8742 38.2704 72.6102 39.8123 72.794 41.6617C72.9717 43.4592 72.6222 45.5353 71.7454 47.8901C69.5724 53.732 64.115 61.4038 55.3731 70.9056C59.9757 68.1764 64.499 66.2026 68.9428 64.9843C74.7028 63.4065 80.319 63.102 85.7914 64.0706L85.5847 65.251C80.2811 64.3113 74.8386 64.6064 69.2574 66.1363C64.7216 67.3775 60.0886 69.4357 55.3581 72.3107C61.238 70.7469 66.0878 69.9704 69.9075 69.9814C73.2568 69.9904 75.8387 70.6051 77.6532 71.8254C79.5266 73.0866 80.5752 74.961 80.7989 77.4486C80.9417 79.0693 80.7269 80.9527 80.1547 83.0987L80.1368 83.1661L80.1053 83.2245C79.3064 84.7225 78.4017 85.9208 77.3911 86.8196C75.9657 88.1256 74.1055 88.855 72.1723 88.8657C70.248 88.8897 68.1164 88.2825 65.7777 87.0442C61.8192 84.9472 57.2255 81.0121 51.9968 75.2391C56.7902 83.1711 62.5976 88.5666 69.4191 91.4257C76.5093 94.3975 84.7134 94.6407 94.0315 92.1552L94.3356 93.3146Z" fill="white"/>
<path d="M69.906 71.1798C65.584 71.1678 59.8629 72.2043 52.7428 74.2894C57.9356 80.0415 62.4638 83.943 66.3274 85.9942C68.4894 87.1406 70.4302 87.7028 72.1499 87.6809C73.7947 87.6694 75.3766 87.0469 76.5882 85.9343C77.4869 85.1354 78.2938 84.0674 79.0088 82.7302C79.5311 80.751 79.7273 79.0264 79.5975 77.5564C79.4118 75.4474 78.5415 73.8695 76.9867 72.823C75.3719 71.7355 73.0117 71.1862 69.906 71.1753M53.0109 41.8834C50.4734 48.1597 49.9352 58.6646 51.3961 73.3982C61.8526 62.4674 68.2628 53.8258 70.6265 47.4736C71.4384 45.2887 71.7644 43.3913 71.6046 41.7815C71.4876 40.3046 70.83 38.9227 69.7577 37.9004C68.9538 37.1295 67.8883 36.4964 66.5611 36.0011C60.0262 33.7512 55.5094 35.7134 53.0109 41.8879V41.8834ZM94.3356 93.3146C84.7548 95.87 76.2966 95.6099 68.9608 92.5342C61.6479 89.4674 55.4755 83.613 50.4435 74.971L49.663 75.2047L50.3101 74.5321C48.7034 59.0705 49.2342 48.0393 51.9025 41.4385C54.6836 34.559 59.6991 32.3681 66.9491 34.8656L66.9625 34.8731C68.4525 35.4273 69.6603 36.1483 70.586 37.0361C71.8742 38.2704 72.6102 39.8123 72.794 41.6617C72.9717 43.4592 72.6222 45.5353 71.7454 47.8901C69.5724 53.732 64.115 61.4038 55.3731 70.9056C59.9757 68.1764 64.499 66.2026 68.9428 64.9843C74.7028 63.4065 80.319 63.102 85.7914 64.0706L85.5847 65.251C80.2811 64.3113 74.8386 64.6064 69.2574 66.1363C64.7216 67.3775 60.0886 69.4357 55.3581 72.3107C61.238 70.7469 66.0878 69.9704 69.9075 69.9814C73.2568 69.9904 75.8387 70.6051 77.6532 71.8254C79.5266 73.0866 80.5752 74.961 80.7989 77.4486C80.9417 79.0693 80.7269 80.9527 80.1547 83.0987L80.1368 83.1661L80.1053 83.2245C79.3064 84.7225 78.4017 85.9208 77.3911 86.8196C75.9657 88.1256 74.1055 88.855 72.1723 88.8657C70.248 88.8897 68.1164 88.2825 65.7777 87.0442C61.8192 84.9472 57.2255 81.0121 51.9968 75.2391C56.7902 83.1711 62.5976 88.5666 69.4191 91.4257C76.5093 94.3975 84.7134 94.6407 94.0315 92.1552L94.3356 93.3146Z" stroke="white"/>
<path d="M27.6195 27.1093C27.253 36.1178 29.038 44.5351 32.9746 52.3613C36.9201 60.2044 43.0282 67.4618 51.2987 74.1336L50.5497 75.0653C42.1434 68.2847 35.9295 60.8949 31.908 52.896C27.8866 44.8971 26.0577 36.2861 26.4212 27.0629L27.6195 27.1093Z" fill="white" stroke="white"/>
<path d="M42.3125 66.5194C42.1696 66.6882 42.0361 66.8647 41.9125 67.0481C40.7901 68.7248 40.8086 70.722 41.968 73.0398C43.1923 75.4904 45.6619 78.2821 49.3767 81.4147C51.7894 83.4499 54.7173 85.6194 58.1605 87.9232L58.1695 87.9307C63.0347 91.334 66.9134 94.929 69.8053 98.7157C72.7153 102.53 74.6292 106.541 75.5469 110.749L74.3755 111.002C73.4967 106.966 71.6568 103.113 68.8557 99.4407C66.0376 95.7458 62.2508 92.2357 57.4954 88.9103C54.0083 86.5766 51.0444 84.3796 48.6038 82.3195C44.7691 79.0839 42.2016 76.1655 40.9014 73.5641C39.5353 70.8309 39.5413 68.4342 40.9194 66.3741C41.0676 66.1525 41.2282 65.9395 41.4003 65.736L42.3125 66.5194Z" fill="white" stroke="white"/>
<path d="M54.2106 85.2251C57.2493 89.8647 60.8079 93.601 64.8863 96.4341C68.9646 99.2671 73.5617 101.2 78.6776 102.234L78.444 103.404C73.1513 102.335 68.4044 100.338 64.2032 97.4122C60.002 94.4862 56.3376 90.6416 53.21 85.8782L54.2106 85.2251Z" fill="white" stroke="white"/>
</svg>
