<svg width="120" height="110" viewBox="0 0 120 110" fill="none" xmlns="http://www.w3.org/2000/svg">
<path fill-rule="evenodd" clip-rule="evenodd" d="M29.7071 93.0905C29.2937 86.5147 31.7092 79.6746 36.532 76.0328C46.137 68.7918 50.6437 71.5807 55.1261 72.3483C60.2812 73.2012 63.1587 70.6425 62.7048 66.5402C62.4022 63.8735 62.1077 61.2039 61.8213 58.5316C63.7747 54.7448 64.0503 55.8023 61.0674 52.6978C62.2231 52.032 63.2271 51.1094 64.0098 49.9942C65.0716 48.2884 61.6835 45.8918 62.0644 45.1839C62.4454 44.476 67.9491 40.1263 65.8903 39.7852C63.8315 39.444 55.1909 31.9898 53.586 27.8448C49.6224 17.6101 47.7095 10.3947 43.3163 6.73584C68.2814 8.55249 88.8533 30.3608 89.988 57.0049C91.0336 81.5424 75.2359 101.986 53.3591 106.472C70.6401 97.9434 84.5979 83.2482 85.3355 61.3205C85.9677 42.3609 74.5227 23.1283 56.2528 18.3607L61.4403 21.4225C74.2227 29.3629 81.9879 42.8555 81.9392 58.2331C81.9392 71.8792 75.9735 86.2333 65.9551 95.2483C53.1402 106.796 35.2027 110.344 31.158 100.297C30.2942 97.9975 29.8038 95.5613 29.7071 93.0905Z" fill="white"/>
<path fill-rule="evenodd" clip-rule="evenodd" d="M41.9383 21.4993C48.6578 44.5272 49.3792 53.636 31.0931 67.0263C7.03581 84.6469 24.7951 107.342 46.2342 106.029C59.3895 105.227 72.8772 98.5148 64.877 102.967C29.1153 122.788 5.77135 92.7323 6.33063 79.0861C6.94666 64.3738 12.5962 61.6787 17.4352 51.0262C20.6774 43.9046 18.3917 36.5271 17.6379 25.4396C17.2164 19.2733 18.262 16.8511 21.4313 11.367C8.87578 21.3372 15.571 36.1007 16.5679 44.911C5.51198 29.2776 5.99829 -1.2557 35.5754 3.17931C37.7006 3.49635 39.6815 4.49388 41.2493 6.03647C38.2827 8.12604 40.7387 17.3713 41.9383 21.4993Z" fill="white"/>
<path fill-rule="evenodd" clip-rule="evenodd" d="M44.8481 4.89372C53.7642 -2.32169 65.6794 0.100502 72.9339 5.3628C84.5896 13.8234 89.38 31.9131 89.2098 46.1307C89.2098 46.1307 86.2999 31.9387 78.3321 20.1177C71.2722 9.63576 58.9599 1.39689 44.8481 4.89372Z" fill="white"/>
<path fill-rule="evenodd" clip-rule="evenodd" d="M100.044 81.9817C100.888 80.8264 102.112 79.9681 103.507 79.5529C104.902 79.1378 106.382 79.1916 107.696 79.7051C109.009 80.2186 110.074 81.16 110.71 82.3691C111.345 83.5781 111.512 84.9799 111.181 86.3358C110.85 87.6916 110.043 88.9175 108.896 89.8047C107.749 90.692 106.333 91.1856 104.891 91.2015C103.448 91.2174 102.068 90.7546 100.984 89.892C99.9009 89.0294 99.1817 87.8203 98.9492 86.4707C98.909 86.2358 98.885 85.998 98.8774 85.7586L88.1008 86.6747L58.818 78.6338L99.2359 83.483C99.4327 82.9523 99.7048 82.447 100.044 81.9817ZM104.442 81.38C103.634 81.5401 102.883 81.9237 102.284 82.4821C101.686 83.0406 101.265 83.7488 101.077 84.5172C100.889 85.2855 100.942 86.0794 101.228 86.7983C101.515 87.5172 102.022 88.1288 102.686 88.5556C103.35 88.9824 104.141 89.2052 104.958 89.1959C105.776 89.1866 106.583 88.9455 107.279 88.5032C107.974 88.0608 108.526 87.4372 108.864 86.7111C109.202 85.9851 109.312 85.1894 109.179 84.4247C109.001 83.4022 108.402 82.5076 107.514 81.9369C106.627 81.3662 105.522 81.166 104.442 81.38Z" fill="white"/>
<path fill-rule="evenodd" clip-rule="evenodd" d="M92.5081 95.5213C91.9838 96.8284 91.9421 98.248 92.3902 99.5382C92.8382 100.828 93.7482 101.909 94.9651 102.597C96.182 103.285 97.6306 103.536 99.0639 103.309C100.497 103.082 101.827 102.39 102.826 101.351C103.825 100.312 104.432 98.9903 104.543 97.6114C104.654 96.2325 104.263 94.8815 103.435 93.7887C102.608 92.6959 101.396 91.9287 100.006 91.6181C98.6164 91.3074 97.1343 91.4724 95.8126 92.085C95.5833 92.1942 95.361 92.3128 95.1455 92.441L89.6962 83.81L65.5663 66.4963L93.3539 94.0405C93.0031 94.4973 92.7185 94.9956 92.5081 95.5213ZM94.5387 99.1786C94.0991 98.241 94.0758 97.1575 94.4739 96.1665C94.872 95.1754 95.6588 94.358 96.6614 93.8941C97.6639 93.4302 98.8001 93.3577 99.8198 93.6926C100.84 94.0276 101.659 94.7425 102.099 95.6801C102.317 96.1444 102.434 96.6493 102.446 97.1662C102.457 97.683 102.361 98.2016 102.164 98.6923C101.967 99.183 101.672 99.6362 101.297 100.026C100.921 100.416 100.473 100.735 99.9764 100.965C99.4799 101.194 98.9455 101.33 98.4036 101.365C97.8617 101.4 97.3228 101.332 96.8179 101.166C96.313 101 95.8518 100.739 95.4607 100.398C95.0697 100.057 94.7564 99.6429 94.5387 99.1786Z" fill="white"/>
</svg>
