<svg width="120" height="106" viewBox="0 0 120 106" fill="none" xmlns="http://www.w3.org/2000/svg">
<g clip-path="url(#clip0_217_897)">
<path fill-rule="evenodd" clip-rule="evenodd" d="M30.6725 91.6989C30.3919 93.7149 29.4173 95.5718 27.9147 96.953C26.412 98.3342 24.4743 99.1543 22.4319 99.2736C20.3894 99.3928 18.3687 98.8038 16.7139 97.6069C15.0592 96.41 13.8729 94.6792 13.3572 92.7097C12.8416 90.7401 13.0285 88.6537 13.8861 86.8058C14.7437 84.958 16.2189 83.4632 18.0603 82.5762C19.9017 81.6893 21.9954 81.4649 23.9845 81.9415C25.9735 82.4181 27.7349 83.5662 28.9684 85.1899C29.1877 85.4713 29.3865 85.7679 29.5632 86.0775L42.7299 78.3771L85.9356 71.2605L30.6805 89.26C30.793 90.0718 30.793 90.8951 30.6805 91.7069L30.6725 91.6989ZM25.4395 95.1373C26.5185 94.3238 27.2807 93.1633 27.596 91.8535C27.9112 90.5437 27.7602 89.1657 27.1687 87.9543C26.5771 86.7429 25.5816 85.773 24.3517 85.2098C23.1219 84.6467 21.7338 84.5253 20.424 84.8661C19.1142 85.2069 17.9637 85.989 17.1686 87.0791C16.3735 88.1692 15.9829 89.4998 16.0635 90.8442C16.144 92.1886 16.6907 93.4636 17.6103 94.452C18.53 95.4404 19.7657 96.0811 21.1069 96.2647C21.8681 96.3698 22.6428 96.3244 23.3863 96.1309C24.1298 95.9374 24.8276 95.5997 25.4395 95.1373Z" fill="white"/>
<path fill-rule="evenodd" clip-rule="evenodd" d="M80.0999 35.2375C79.5784 35.9616 78.8528 36.5155 78.0147 36.8292C77.1767 37.1428 76.2639 37.2021 75.392 36.9996C74.52 36.7971 73.7281 36.3418 73.1164 35.6913C72.5047 35.0409 72.1006 34.2246 71.9554 33.3457C71.8102 32.4667 71.9304 31.5647 72.3007 30.7538C72.671 29.9428 73.2748 29.2593 74.0358 28.7899C74.7967 28.3204 75.6805 28.086 76.5754 28.1164C77.4703 28.1468 78.336 28.4405 79.063 28.9605C79.5458 29.3046 79.9557 29.74 80.2693 30.2418C80.5828 30.7437 80.7937 31.3021 80.89 31.8851C80.9863 32.4681 80.9661 33.0643 80.8305 33.6396C80.6949 34.2148 80.4467 34.7578 80.0999 35.2375Z" fill="white"/>
<path fill-rule="evenodd" clip-rule="evenodd" d="M68.5727 85.2699C67.9216 93.7539 63.0987 98.7595 55.9688 106.06C65.9925 103.805 71.9408 97.0883 74.3764 87.2769C71.9729 86.4773 71.0646 86.1655 68.5727 85.2699Z" fill="white"/>
<path d="M68.7254 83.5907C67.3669 72.6599 58.4926 61.6811 52.3755 53.301C38.2603 33.9661 40.4467 29.1524 47.7133 9.15381C26.5566 28.8885 40.0126 50.0066 54.369 68.19C58.5971 73.5395 61.3703 77.5616 62.8413 81.1999L68.7254 83.5907Z" fill="white"/>
<path d="M73.6128 85.6538C74.706 86.1336 76.0966 86.7653 78.4358 87.7968C84.6654 76.1383 85.0593 61.1613 81.4742 47.5198C81.099 46.5421 80.3488 45.7528 79.3885 45.3254C78.4283 44.898 77.3367 44.8676 76.3539 45.2408C75.3711 45.6141 74.5776 46.3604 74.148 47.3157C73.7183 48.2709 73.6877 49.3568 74.0629 50.3344C78.4358 63.6562 78.4599 75.1068 73.6128 85.6538Z" fill="white"/>
<path d="M78.0502 88.4365L73.0504 86.8372C70.6747 91.4895 67.6191 95.766 63.9832 99.5272H63.9189H63.9671C67.3848 95.6391 69.1464 90.58 68.8785 85.4219L63.6054 83.5188C65.1005 89.2601 63.7421 95.4572 58.3805 103.413L55.8726 106.14C57.8326 105.712 59.7387 105.069 61.5556 104.221C63.6048 103.182 65.5277 101.913 67.2869 100.439C71.7453 97.3041 75.4263 93.1992 78.0502 88.4365Z" fill="white"/>
<path fill-rule="evenodd" clip-rule="evenodd" d="M105.404 21.2201C98.0411 -7.52634 55.5266 -6.7667 48.5575 20.9562C42.4805 45.1688 64.0392 56.1397 67.8493 75.9383C68.3709 78.4429 68.6401 80.993 68.6531 83.5507C71.4344 84.6862 72.3025 85.046 74.6416 86.0936C80.7588 57.7149 50.1651 41.2667 61.1132 21.2841C70.0759 4.93179 100.179 15.8786 92.6393 33.7502C84.7779 52.4054 61.1213 35.6133 72.206 25.722C76.394 22.0197 89.1346 27.6171 80.8472 33.9181C78.1543 35.9732 75.2204 34.9576 72.198 34.6218C79.6093 44.817 94.882 31.1594 86.0399 22.1957C74.6256 10.5931 53.71 22.9953 63.1389 40.8269C76.1046 65.3993 112.213 47.8396 105.404 21.2201Z" fill="white"/>
<path fill-rule="evenodd" clip-rule="evenodd" d="M30.9294 69.5094C30.6945 67.488 29.7624 65.6102 28.2918 64.1958C26.8212 62.7814 24.9032 61.918 22.8645 61.7526C20.8257 61.5872 18.7924 62.1301 17.1109 63.2888C15.4294 64.4475 14.2037 66.1503 13.6427 68.1071C13.0818 70.0639 13.2201 72.1537 14.0343 74.0204C14.8485 75.8871 16.2881 77.4152 18.1078 78.3445C19.9276 79.2737 22.015 79.5466 24.0143 79.1166C26.0136 78.6866 27.8012 77.5804 29.0726 75.9863C29.2925 75.7074 29.4965 75.4164 29.6835 75.1147L42.6733 83.111L85.6942 91.2111L30.8732 71.9402C31.0049 71.1337 31.0238 70.313 30.9294 69.5014V69.5094ZM25.7849 65.951C26.8491 66.7898 27.5881 67.9696 27.8757 69.2896C28.1634 70.6095 27.9821 71.9878 27.3626 73.1897C26.7431 74.3915 25.7239 75.3425 24.4786 75.8805C23.2332 76.4185 21.8389 76.5103 20.5331 76.1402C19.2274 75.7701 18.0911 74.9611 17.3178 73.851C16.5445 72.7408 16.1821 71.3983 16.2925 70.0521C16.4028 68.706 16.979 67.4395 17.9228 66.4686C18.8666 65.4977 20.1196 64.8824 21.4684 64.7276C23.0026 64.5598 24.5416 64.9993 25.7528 65.951H25.7849Z" fill="white"/>
</g>
<defs>
<clipPath id="clip0_217_897">
<rect width="120" height="106" fill="white"/>
</clipPath>
</defs>
</svg>
