<svg width="97" height="105" viewBox="0 0 97 105" fill="none" xmlns="http://www.w3.org/2000/svg">
<g clip-path="url(#clip0_233_678)">
<path fill-rule="evenodd" clip-rule="evenodd" d="M48.5542 5.84173C38.7547 5.83923 29.2575 9.23587 21.6809 15.4529C14.1044 21.6699 8.91733 30.3226 7.00361 39.9365C5.08988 49.5504 6.5679 59.5306 11.1858 68.1766C15.8038 76.8226 23.2759 83.5993 32.3289 87.3519C41.382 91.1046 51.4557 91.6009 60.8336 88.7565C70.2115 85.9121 78.3133 79.9028 83.7584 71.7527C89.2035 63.6026 91.6549 53.816 90.695 44.0605C89.7351 34.305 85.4234 25.1843 78.4943 18.2525C74.5667 14.3135 69.8998 11.1894 64.7618 9.0596C59.6238 6.9298 54.1159 5.83624 48.5542 5.84173ZM14.7713 14.4338C22.5817 6.62203 32.8579 1.76062 43.8495 0.677772C54.841 -0.40508 65.8679 2.35761 75.0516 8.49517C84.2353 14.6327 91.0077 23.7655 94.2151 34.3376C97.4224 44.9098 96.8664 56.2673 92.6416 66.4753C88.4169 76.6833 80.7847 85.1104 71.0454 90.3209C61.3061 95.5314 50.0621 97.203 39.229 95.0509C28.3958 92.8988 18.6436 87.0562 11.6337 78.5184C4.62384 69.9806 0.789979 59.2757 0.785192 48.2275C0.777483 41.9487 2.01148 35.7303 4.41617 29.9305C6.82087 24.1307 10.3487 18.8641 14.7966 14.4338H14.7713Z" fill="white"/>
<path fill-rule="evenodd" clip-rule="evenodd" d="M70.3119 80.7841C63.8716 85.0888 56.2999 87.3863 48.5542 87.3863C38.1737 87.3662 28.2242 83.2324 20.8841 75.89C13.544 68.5475 9.41145 58.5948 9.39136 48.211C9.39136 40.4628 11.6882 32.8887 15.9915 26.4464C18.7153 22.3686 22.1655 18.8602 26.1459 16.0822C27.7681 20.4468 29.9838 26.4155 33.0109 34.574L25.7638 79.6852L25.7339 79.7659H25.7508L25.7638 79.6852C30.5247 66.8265 34.4729 56.1703 37.7468 47.3393C40.0451 53.5349 42.6731 60.6196 45.6781 68.7206L45.7276 68.8542L49.6891 79.534L49.6987 79.5936V79.5598L49.6891 79.534L42.4758 34.5878C46.6763 23.266 49.2954 16.2201 50.9254 11.8351L50.9255 11.8348L51.9123 9.17992C53.345 9.30327 54.7746 9.50588 56.1945 9.7884C63.7913 11.3 70.7694 15.0311 76.2465 20.5098C81.7235 25.9886 85.4534 32.969 86.9645 40.5683C88.4756 48.1675 87.7001 56.0444 84.7359 63.2027C81.7718 70.3611 76.7522 76.4795 70.3119 80.7841ZM35.2903 23.5383C33.4324 22.1649 31.0303 18.2862 28.902 14.3251C30.3985 13.4566 31.9565 12.6851 33.5672 12.0177C38.5743 9.94303 43.9331 8.94018 49.3025 9.04279C46.853 14.1118 42.9365 21.6586 40.1592 23.7106C39.4044 24.2991 38.6348 24.8678 37.851 25.4162C36.98 24.8148 36.1261 24.1886 35.2903 23.5383ZM55.3952 30.1733C55.4924 30.1733 55.5869 30.1816 55.6774 30.1973L72.2275 30.1226C72.8778 30.1226 73.41 30.5112 73.41 30.9674C73.41 31.4236 72.8863 31.8122 72.2444 31.8122L56.5846 31.883L56.5954 33.2181L71.8392 33.1474C71.9741 33.13 72.1106 33.165 72.2205 33.2451C72.3305 33.3253 72.4056 33.4445 72.4304 33.5783C72.4304 33.8149 72.1686 34.0176 71.8476 34.0176L56.6023 34.0804L56.6132 35.4227L71.8561 35.3521C72.1855 35.3521 72.4473 35.5464 72.4473 35.7829C72.4473 36.0195 72.1939 36.2222 71.8645 36.2222L56.6201 36.285L56.631 37.6278L71.8814 37.5571C72.2023 37.5571 72.4641 37.7514 72.4641 37.988C72.4641 38.2245 72.2108 38.4273 71.8814 38.4273L56.6379 38.4901L56.6488 39.8329L71.8982 39.7623C72.0328 39.7469 72.1682 39.7827 72.2777 39.8625C72.3872 39.9423 72.4627 40.0603 72.4894 40.1931C72.4894 40.4297 72.2276 40.6325 71.8982 40.6325L56.6558 40.6952L56.6666 42.0386L71.9151 41.9759C72.236 41.9674 72.4894 42.1617 72.4978 42.3983C72.5063 42.6348 72.2445 42.8292 71.9235 42.8292L56.6735 42.8998L56.6844 44.243L71.932 44.1724C72.0666 44.1571 72.202 44.1928 72.3115 44.2726C72.4209 44.3524 72.4965 44.4704 72.5232 44.6033C72.5232 44.8399 72.2614 45.0426 71.9404 45.0426L56.6914 45.1054L56.7022 46.4481L71.9488 46.3775C72.0834 46.3622 72.2188 46.3979 72.3283 46.4777C72.4378 46.5575 72.5133 46.6755 72.54 46.8084C72.54 47.0449 72.2782 47.2477 71.9573 47.2477L56.7092 47.3105L56.72 48.6532L71.9657 48.5825C72.2866 48.5825 72.5569 48.7768 72.5569 49.0134C72.5569 49.25 72.2951 49.4527 71.9742 49.4527L56.727 49.5155L56.7378 50.8582L71.9912 50.7876C72.3121 50.7876 72.574 50.9734 72.574 51.2184C72.574 51.4635 72.3206 51.6578 71.9912 51.6578L56.7448 51.7205L56.7556 53.0633L72.0081 52.9927C72.329 52.9927 72.5908 53.187 72.5908 53.4236C72.5908 53.6601 72.3375 53.8629 72.0081 53.8629L56.7626 53.9335L56.7734 55.2684L72.0165 55.1978C72.3459 55.1978 72.6077 55.3836 72.6077 55.6286C72.6077 55.8736 72.3543 56.0679 72.0334 56.0679L56.7804 56.1386L56.7912 57.473L72.0418 57.4024C72.1764 57.3871 72.3118 57.4228 72.4213 57.5026C72.5308 57.5824 72.6063 57.7004 72.633 57.8333C72.633 58.0783 72.3712 58.2726 72.0502 58.2726L56.7982 58.3432L56.8092 59.6956L72.0586 59.6328C72.3796 59.6328 72.6414 59.8102 72.6414 60.0552C72.6414 60.3002 72.388 60.4945 72.067 60.4945L56.8162 60.5652L56.8268 61.8832L72.0755 61.8126C72.2101 61.7972 72.3455 61.833 72.455 61.9128C72.5645 61.9926 72.64 62.1106 72.6667 62.2434C72.6667 62.4884 72.4049 62.6828 72.0839 62.6828L56.8338 62.7534L56.8446 64.0891L72.0924 64.0264C72.4217 64.0264 72.6836 64.2038 72.6836 64.4488C72.6836 64.6938 72.4218 64.8881 72.1008 64.8881L56.8516 64.9587L56.8624 66.2942L72.1095 66.2314C72.4388 66.2314 72.7006 66.4089 72.7006 66.6539C72.7006 66.8989 72.4388 67.0932 72.1179 67.0932L56.8694 67.1638L56.8802 68.4991L72.1263 68.4363C72.4557 68.4278 72.7176 68.6306 72.7176 68.8672C72.7176 69.1037 72.4557 69.298 72.1348 69.298L56.8873 69.3687L56.898 70.7036L72.557 70.6328C73.2073 70.6328 73.7394 71.0214 73.7394 71.4777C73.7394 71.9339 73.2158 72.3225 72.5739 72.3225L56.9117 72.3932L57.0252 86.4568C56.2567 86.6257 55.4797 86.7778 54.6942 86.8961L54.5694 71.599C54.5682 71.584 54.5676 71.5689 54.5676 71.5537C54.5676 71.5415 54.568 71.5295 54.5687 71.5174L54.2384 31.0541L54.2381 31.0435L54.2381 31.026L54.2382 31.0208L54.2381 31.0182C54.2297 30.5704 54.7449 30.1733 55.3952 30.1733ZM37.0115 35.9102C36.8753 35.8828 36.7425 35.8438 36.6142 35.7939C36.3311 35.6158 36.0868 35.3797 35.8985 35.0996C35.6329 34.7047 35.4904 34.24 35.4887 33.7642C35.4887 33.1248 35.742 32.5115 36.1932 32.0586C36.6444 31.6057 37.2566 31.3502 37.8958 31.3479C38.1956 31.3479 38.4911 31.4039 38.7678 31.5115C38.9209 31.6078 39.063 31.7213 39.1912 31.8501C39.4149 32.0746 39.592 32.341 39.7124 32.6341C39.8329 32.9272 39.8943 33.2412 39.8932 33.5581C39.8916 34.034 39.749 34.4987 39.4835 34.8935C39.218 35.2884 38.8415 35.5956 38.4015 35.7766C37.9615 35.9575 37.4778 36.004 37.0115 35.9102Z" fill="white"/>
</g>
<defs>
<clipPath id="clip0_233_678">
<rect width="95.4874" height="103.89" fill="white" transform="translate(0.810547 0.443359)"/>
</clipPath>
</defs>
</svg>
