<svg width="120" height="98" viewBox="0 0 120 98" fill="none" xmlns="http://www.w3.org/2000/svg">
<g clip-path="url(#clip0_217_932)">
<path fill-rule="evenodd" clip-rule="evenodd" d="M32.2128 66.3591L47.2212 67.2249C47.2212 67.2249 70.4365 70.8515 73.7841 72.085C78.3002 73.7494 87.0669 77.5446 88.9253 81.4071C90.7838 85.2696 86.1363 92.926 86.1363 92.926L83.2566 96.0953C83.2566 96.0953 83.4143 96.7885 76.1749 97.2537C68.9355 97.7189 55.7881 97.9864 47.952 94.1252C40.1159 90.2641 32.7437 82.8053 31.549 78.1442C30.3543 73.4832 32.2128 66.3591 32.2128 66.3591Z" fill="white"/>
<path fill-rule="evenodd" clip-rule="evenodd" d="M96.4171 26.953C97.2654 26.953 98.0946 27.2052 98.7999 27.6778C99.5052 28.1503 100.055 28.822 100.379 29.6078C100.704 30.3936 100.789 31.2582 100.623 32.0924C100.458 32.9265 100.049 33.6927 99.4492 34.294C98.8493 34.8953 98.085 35.3048 97.253 35.4705C96.421 35.6363 95.5586 35.5509 94.775 35.2253C93.9913 34.8996 93.3216 34.3483 92.8505 33.641C92.3794 32.9337 92.1282 32.1022 92.1284 31.2517C92.1284 30.6871 92.2393 30.128 92.4549 29.6063C92.6704 29.0847 92.9864 28.6108 93.3846 28.2116C93.7829 27.8124 94.2557 27.4958 94.776 27.2798C95.2963 27.0639 95.854 26.9528 96.4171 26.953Z" fill="white"/>
<path fill-rule="evenodd" clip-rule="evenodd" d="M115.819 44.7722C116.667 44.7722 117.496 45.0244 118.202 45.4969C118.907 45.9694 119.457 46.641 119.781 47.4267C120.106 48.2124 120.191 49.077 120.025 49.9111C119.86 50.7452 119.451 51.5114 118.852 52.1128C118.252 52.7141 117.488 53.1237 116.656 53.2896C115.824 53.4555 114.961 53.3703 114.178 53.0449C113.394 52.7194 112.724 52.1683 112.253 51.4611C111.782 50.754 111.53 49.9227 111.53 49.0722C111.53 48.5075 111.641 47.9482 111.856 47.4265C112.072 46.9047 112.388 46.4306 112.786 46.0313C113.184 45.6319 113.657 45.3152 114.178 45.0992C114.698 44.8831 115.256 44.772 115.819 44.7722Z" fill="white"/>
<path fill-rule="evenodd" clip-rule="evenodd" d="M59.9965 0.536377C60.8444 0.536638 61.6732 0.788884 62.3782 1.26124C63.0831 1.7336 63.6326 2.40487 63.9572 3.19023C64.2818 3.97558 64.367 4.83979 64.2019 5.67364C64.0368 6.50749 63.6289 7.27356 63.0297 7.87505C62.4305 8.47655 61.6669 8.88647 60.8355 9.05302C60.004 9.21957 59.142 9.13528 58.3583 8.8108C57.5746 8.48631 56.9044 7.9362 56.4324 7.22996C55.9604 6.52373 55.7078 5.69307 55.7065 4.84295C55.7064 4.27811 55.8172 3.71877 56.0328 3.19691C56.2483 2.67505 56.5643 2.20089 56.9627 1.80155C57.3612 1.40221 57.8342 1.08551 58.3547 0.869552C58.8753 0.653596 59.4332 0.542618 59.9965 0.542964" fill="white"/>
<path fill-rule="evenodd" clip-rule="evenodd" d="M25.8209 27.9768C26.6692 27.9768 27.4983 28.229 28.2036 28.7015C28.9089 29.174 29.4586 29.8455 29.7832 30.6313C30.1078 31.417 30.1927 32.2816 30.0272 33.1157C29.8617 33.9498 29.4533 34.716 28.8535 35.3173C28.2537 35.9187 27.4895 36.3282 26.6576 36.4942C25.8257 36.6601 24.9634 36.5749 24.1797 36.2495C23.3961 35.924 22.7263 35.3729 22.255 34.6657C21.7838 33.9586 21.5322 33.1273 21.5322 32.2768C21.5321 31.7121 21.6429 31.1528 21.8583 30.6311C22.0738 30.1093 22.3897 29.6352 22.788 29.2359C23.1863 28.8365 23.6591 28.5198 24.1795 28.3038C24.6999 28.0877 25.2577 27.9766 25.8209 27.9768Z" fill="white"/>
<path fill-rule="evenodd" clip-rule="evenodd" d="M4.30773 48.1802C5.15595 48.1802 5.98515 48.4324 6.69042 48.9049C7.3957 49.3773 7.94538 50.0489 8.26998 50.8346C8.59458 51.6204 8.67952 52.4849 8.51404 53.319C8.34856 54.1532 7.9401 54.9194 7.34031 55.5207C6.74053 56.1221 5.97636 56.5316 5.14444 56.6975C4.31251 56.8635 3.45019 56.7783 2.66653 56.4528C1.88288 56.1274 1.21305 55.5762 0.741803 54.8691C0.270555 54.162 0.019043 53.3306 0.019043 52.4802C0.019043 51.9155 0.129951 51.3563 0.345479 50.8346C0.561006 50.3129 0.876935 49.8389 1.27518 49.4396C1.67342 49.0403 2.1462 48.7236 2.66653 48.5075C3.18686 48.2914 3.74453 48.1802 4.30773 48.1802Z" fill="white"/>
<path fill-rule="evenodd" clip-rule="evenodd" d="M30.4736 66.7637C81.0583 69.7446 98.5237 79.636 82.8699 96.438C92.1387 88.2141 101.488 74.79 110.918 56.166C89.4819 75.3119 83.1731 70.8072 91.9915 42.6519C74.1199 70.6851 63.5 62.9491 60.1318 19.4441C58.2549 62.2463 49.2687 69.8909 33.1733 42.3778C36.0044 56.5047 35.1045 64.6333 30.4736 66.7637Z" fill="white"/>
<path fill-rule="evenodd" clip-rule="evenodd" d="M82.8699 96.4381C46.5222 97.5749 29.7709 87.7274 32.616 66.8956C32.7265 66.0812 32.8675 65.2505 33.0393 64.4036C32.3742 65.4956 31.519 66.2824 30.4737 66.7638C26.4036 68.6368 19.4516 65.8778 9.61768 58.4867C15.7052 73.675 25.947 86.8308 39.1641 96.4394C53.6003 99.2239 68.4337 99.2239 82.8699 96.4394" fill="white"/>
</g>
<defs>
<clipPath id="clip0_217_932">
<rect width="120" height="98" fill="white"/>
</clipPath>
</defs>
</svg>
